<svg width="15" height="15" viewBox="0 0 42 42" fill="none" xmlns="http://www.w3.org/2000/svg">
<path d="M21.2292 28.0626L13.1458 36.1459C12.1671 37.0905 10.8601 37.6183 9.49998 37.6183C8.13986 37.6183 6.83282 37.0905 5.85415 36.1459C5.37416 35.6679 4.9933 35.0997 4.73343 34.474C4.47355 33.8484 4.33978 33.1776 4.33978 32.5001C4.33978 31.8226 4.47355 31.1518 4.73343 30.5262C4.9933 29.9006 5.37416 29.3324 5.85415 28.8543L13.9375 20.7709C14.3298 20.3786 14.5502 19.8466 14.5502 19.2918C14.5502 18.737 14.3298 18.2049 13.9375 17.8126C13.5452 17.4203 13.0131 17.1999 12.4583 17.1999C11.9035 17.1999 11.3715 17.4203 10.9792 17.8126L2.89582 25.9168C1.26739 27.6893 0.386694 30.0223 0.43764 32.4288C0.488586 34.8352 1.46724 37.1289 3.16922 38.8309C4.8712 40.5329 7.16491 41.5115 9.57133 41.5625C11.9778 41.6134 14.3108 40.7327 16.0833 39.1043L24.1875 31.0209C24.5798 30.6286 24.8002 30.0966 24.8002 29.5418C24.8002 28.987 24.5798 28.4549 24.1875 28.0626C23.7952 27.6703 23.2631 27.4499 22.7083 27.4499C22.1535 27.4499 21.6215 27.6703 21.2292 28.0626ZM39.1041 2.89595C37.3516 1.1543 34.9812 0.176758 32.5104 0.176758C30.0396 0.176758 27.6692 1.1543 25.9167 2.89595L17.8125 10.9793C17.6182 11.1735 17.4642 11.4041 17.359 11.6579C17.2539 11.9117 17.1998 12.1837 17.1998 12.4584C17.1998 12.7332 17.2539 13.0052 17.359 13.259C17.4642 13.5128 17.6182 13.7434 17.8125 13.9376C18.0067 14.1319 18.2373 14.2859 18.4911 14.3911C18.7449 14.4962 19.0169 14.5503 19.2917 14.5503C19.5664 14.5503 19.8384 14.4962 20.0922 14.3911C20.346 14.2859 20.5766 14.1319 20.7708 13.9376L28.8542 5.85428C29.8328 4.90975 31.1399 4.3819 32.5 4.3819C33.8601 4.3819 35.1671 4.90975 36.1458 5.85428C36.6258 6.33238 37.0067 6.90055 37.2665 7.5262C37.5264 8.15184 37.6602 8.82265 37.6602 9.50012C37.6602 10.1776 37.5264 10.8484 37.2665 11.474C37.0067 12.0997 36.6258 12.6678 36.1458 13.1459L28.0625 21.2293C27.8672 21.423 27.7122 21.6534 27.6065 21.9072C27.5007 22.1611 27.4462 22.4334 27.4462 22.7084C27.4462 22.9835 27.5007 23.2558 27.6065 23.5096C27.7122 23.7635 27.8672 23.9939 28.0625 24.1876C28.2562 24.3829 28.4866 24.5379 28.7404 24.6436C28.9943 24.7494 29.2666 24.8039 29.5417 24.8039C29.8167 24.8039 30.089 24.7494 30.3429 24.6436C30.5967 24.5379 30.8271 24.3829 31.0208 24.1876L39.1041 16.0834C40.8458 14.3309 41.8233 11.9605 41.8233 9.4897C41.8233 7.01892 40.8458 4.64849 39.1041 2.89595ZM14.3958 27.6043C14.5905 27.7974 14.8214 27.9501 15.0752 28.0538C15.329 28.1575 15.6008 28.21 15.875 28.2084C16.1492 28.21 16.421 28.1575 16.6748 28.0538C16.9286 27.9501 17.1595 27.7974 17.3542 27.6043L27.6042 17.3543C27.9965 16.962 28.2168 16.4299 28.2168 15.8751C28.2168 15.3203 27.9965 14.7882 27.6042 14.3959C27.2119 14.0036 26.6798 13.7833 26.125 13.7833C25.5702 13.7833 25.0381 14.0036 24.6458 14.3959L14.3958 24.6459C14.2006 24.8396 14.0456 25.07 13.9398 25.3239C13.834 25.5778 13.7796 25.8501 13.7796 26.1251C13.7796 26.4001 13.834 26.6724 13.9398 26.9263C14.0456 27.1802 14.2006 27.4106 14.3958 27.6043Z" fill="black"/>
</svg>
